<svg width="288" height="307" viewBox="0 0 288 307" fill="none" xmlns="http://www.w3.org/2000/svg">
<path d="M188.646 307C187.528 307 186.41 306.579 185.293 305.738C184.175 304.897 183.336 303.075 182.777 300.271L150.498 169.901C150.218 167.658 149.38 166.677 147.983 166.958C146.585 166.958 145.607 167.939 145.048 169.901L108.996 300.271C108.157 303.075 107.179 304.897 106.061 305.738C105.223 306.579 104.245 307 103.127 307C102.009 307 100.751 306.579 99.3537 305.738C98.2358 304.897 97.3974 303.075 96.8384 300.271L30.6026 33.6438C28.6463 25.7936 26.4105 20.3265 23.8952 17.2425C21.6594 14.1584 17.7467 12.0557 12.1572 10.9343L5.869 9.6726C1.95633 8.8315 0 7.00913 0 4.20548C0 1.40183 2.09607 0 6.28821 0H73.7817C77.6943 0 79.6507 1.54201 79.6507 4.62602C79.6507 7.14931 77.5546 8.8315 73.3624 9.6726L68.7511 10.5137C64 11.3548 60.9258 13.037 59.5284 15.5603C58.4105 17.8032 58.5502 22.0087 59.9476 28.1767L109.415 233.404C109.974 235.367 110.812 236.348 111.93 236.348C113.328 236.348 114.306 235.367 114.865 233.404L133.729 164.855C136.803 154.201 138.341 144.388 138.341 135.416C138.341 126.445 136.943 116.492 134.148 105.558L116.541 33.6438C114.585 25.7936 112.629 20.1863 110.672 16.8219C108.996 13.4575 106.62 11.495 103.546 10.9343L97.2576 9.6726C93.345 8.8315 91.3886 7.00913 91.3886 4.20548C91.3886 1.40183 93.4847 0 97.6768 0H155.109C159.022 0 160.978 1.54201 160.978 4.62602C160.978 7.14931 158.882 8.8315 154.69 9.6726L150.079 10.5137C146.445 11.0744 144.21 12.6164 143.371 15.1397C142.812 17.663 143.231 22.0087 144.629 28.1767L158.882 88.3151C159.441 90.2776 160.279 91.2589 161.397 91.2589C162.795 91.2589 163.773 90.2776 164.332 88.3151L179.424 37.0082C182.498 26.3543 183.616 19.3452 182.777 15.9808C182.218 12.6164 180.681 10.7941 178.166 10.5137L173.555 9.6726C169.362 8.8315 167.266 7.14931 167.266 4.62602C167.266 1.54201 169.223 0 173.135 0H212.961C217.712 0 220.087 1.54201 220.087 4.62602C220.087 7.42967 217.712 9.11186 212.961 9.6726L208.349 10.0931C204.716 10.3735 201.642 12.6164 199.127 16.8219C196.891 21.0274 194.376 27.8963 191.581 37.4288L175.651 92.5206C172.576 102.894 170.9 112.707 170.62 121.959C170.62 130.931 171.878 140.884 174.393 151.818L193.258 230.881C193.817 232.843 194.655 233.825 195.773 233.825C197.17 233.825 198.009 232.843 198.288 230.881L246.498 37.0082C250.41 20.747 247.895 11.9155 238.952 10.5137L234.341 9.6726C230.148 8.8315 228.052 7.00913 228.052 4.20548C228.052 1.40183 230.009 0 233.921 0H280.873C285.624 0 288 1.54201 288 4.62602C288 7.42967 285.624 9.11186 280.873 9.6726L276.262 10.0931C272.629 10.3735 269.415 12.6164 266.62 16.8219C264.105 20.747 261.729 27.616 259.493 37.4288L194.515 300.271C193.956 303.075 193.118 304.897 192 305.738C190.882 306.579 189.764 307 188.646 307Z" fill="#FFFDFD"/>
</svg>
